<?xml version="1.0" encoding="utf-8"?>
<!-- Generator: Adobe Illustrator 16.0.0, SVG Export Plug-In . SVG Version: 6.00 Build 0)  -->
<!DOCTYPE svg PUBLIC "-//W3C//DTD SVG 1.1//EN" "http://www.w3.org/Graphics/SVG/1.1/DTD/svg11.dtd">
<svg version="1.1" id="Layer_1" xmlns="http://www.w3.org/2000/svg" xmlns:xlink="http://www.w3.org/1999/xlink" x="0px" y="0px"
	 width="16px" height="16px" viewBox="0 0 512 512" enable-background="new 0 0 512 512" xml:space="preserve">
<path d="M64,80V16c0-8.844,7.156-16,16-16s16,7.156,16,16v64c0,8.844-7.156,16-16,16S64,88.844,64,80z M336,96
	c8.844,0,16-7.156,16-16V16c0-8.844-7.156-16-16-16s-16,7.156-16,16v64C320,88.844,327.156,96,336,96z M512,384
	c0,70.688-57.313,128-128,128s-128-57.313-128-128s57.313-128,128-128S512,313.313,512,384z M480,384c0-52.938-43.063-96-96-96
	s-96,43.063-96,96s43.063,96,96,96S480,436.938,480,384z M128,192H64v64h64V192z M64,352h64v-64H64V352z M160,256h64v-64h-64V256z
	 M160,352h64v-64h-64V352z M32,380.813V160h352v64h32V99.188C416,79.75,400.5,64,381.344,64H368v16c0,17.625-14.344,32-32,32
	s-32-14.375-32-32V64H112v16c0,17.625-14.344,32-32,32S48,97.625,48,80V64H34.672C15.516,64,0,79.75,0,99.188v281.625
	C0,400.188,15.516,416,34.672,416H224v-32H34.672C33.219,384,32,382.5,32,380.813z M320,256v-64h-64v64H320z M451.875,352.813
	c-6.25-6.25-16.375-6.25-22.625,0l-56.563,56.563l-33.938-33.938c-6.25-6.25-16.375-6.25-22.625,0s-6.25,16.375,0,22.625
	l45.25,45.25c3.125,3.125,7.219,4.688,11.313,4.688s8.188-1.563,11.313-4.688l67.875-67.875
	C458.125,369.188,458.125,359.063,451.875,352.813z"/>
</svg>
